# xmcd
#
# Track frame offsets: 
#        150
#        18620
#        43195
#
# Disc length: 902 seconds
#
# Revision: 3
# Processed by: cddbd v1.5.2PL0 Copyright (c) Steve Scherf et al.
# Submitted via: ExactAudioCopy v1.3
#
DISCID=21038403
DTITLE=Thunder - In A Broken Dream
DYEAR=1995
DGENRE=Rock
TTITLE0=In A Broken Dream
TTITLE1=Stay With Me
TTITLE2=Englishman On Holiday (live)
EXTD=
EXTT0=
EXTT1=
EXTT2=
PLAYORDER=
